<svg width="16" height="16" viewBox="0 0 16 16" fill="none" xmlns="http://www.w3.org/2000/svg">
<g filter="url(#filter0_d_1_3)">
<path d="M16 8.04899C16 3.60299 12.418 -0.00100708 8 -0.00100708C3.58 -7.08003e-06 -0.0019989 3.60299 -0.0019989 8.04999C-0.0019989 12.067 2.924 15.397 6.748 16.001V10.376H4.718V8.04999H6.75V6.27499C6.75 4.25799 7.945 3.14399 9.772 3.14399C10.648 3.14399 11.563 3.30099 11.563 3.30099V5.28099H10.554C9.561 5.28099 9.251 5.90199 9.251 6.53899V8.04899H11.469L11.115 10.375H9.25V16C13.074 15.396 16 12.066 16 8.04899Z" fill="#D3D04F"/>
</g>
<defs>
<filter id="filter0_d_1_3" x="-4.002" y="-0.00100708" width="24.002" height="24.002" filterUnits="userSpaceOnUse" color-interpolation-filters="sRGB">
<feFlood flood-opacity="0" result="BackgroundImageFix"/>
<feColorMatrix in="SourceAlpha" type="matrix" values="0 0 0 0 0 0 0 0 0 0 0 0 0 0 0 0 0 0 127 0" result="hardAlpha"/>
<feOffset dy="4"/>
<feGaussianBlur stdDeviation="2"/>
<feComposite in2="hardAlpha" operator="out"/>
<feColorMatrix type="matrix" values="0 0 0 0 0 0 0 0 0 0 0 0 0 0 0 0 0 0 0.25 0"/>
<feBlend mode="normal" in2="BackgroundImageFix" result="effect1_dropShadow_1_3"/>
<feBlend mode="normal" in="SourceGraphic" in2="effect1_dropShadow_1_3" result="shape"/>
</filter>
</defs>
</svg>
